<?xml version="1.0" encoding="UTF-8" standalone="no"?>
<!DOCTYPE svg PUBLIC "-//W3C//DTD SVG 1.1//EN"
 "http://www.w3.org/Graphics/SVG/1.1/DTD/svg11.dtd">
<!-- Generated by graphviz version 2.44.0 (20200408.0750)
 -->
<!-- Pages: 1 -->
<svg width="925pt" height="116pt"
 viewBox="0.00 0.00 924.73 116.00" xmlns="http://www.w3.org/2000/svg" xmlns:xlink="http://www.w3.org/1999/xlink">
<g id="graph0" class="graph" transform="scale(1 1) rotate(0) translate(4 112)">
<polygon fill="white" stroke="transparent" points="-4,4 -4,-112 920.73,-112 920.73,4 -4,4"/>
<!-- ChildDummyViewModel -->
<g id="node1" class="node">
<title>ChildDummyViewModel</title>
<polygon fill="none" stroke="black" points="162.19,-108 4.19,-108 4.19,-72 162.19,-72 162.19,-108"/>
<text text-anchor="middle" x="83.19" y="-86.3" font-family="Times,serif" font-size="14.00">ChildDummyViewModel</text>
</g>
<!-- DummyViewModel -->
<g id="node2" class="node">
<title>DummyViewModel</title>
<ellipse fill="none" stroke="black" cx="83.19" cy="-18" rx="83.39" ry="18"/>
<text text-anchor="middle" x="83.19" y="-14.3" font-family="Times,serif" font-size="14.00">DummyViewModel</text>
</g>
<!-- ChildDummyViewModel&#45;&gt;DummyViewModel -->
<g id="edge1" class="edge">
<title>ChildDummyViewModel&#45;&gt;DummyViewModel</title>
<path fill="none" stroke="black" d="M83.19,-71.7C83.19,-63.98 83.19,-54.71 83.19,-46.11"/>
<polygon fill="black" stroke="black" points="86.69,-46.1 83.19,-36.1 79.69,-46.1 86.69,-46.1"/>
</g>
<!-- AppDelegate -->
<g id="node3" class="node">
<title>AppDelegate</title>
<ellipse fill="none" stroke="black" cx="292.19" cy="-90" rx="57.39" ry="18"/>
<text text-anchor="middle" x="292.19" y="-86.3" font-family="Times,serif" font-size="14.00">AppDelegate</text>
</g>
<!-- UIApplicationDelegate -->
<g id="node4" class="node">
<title>UIApplicationDelegate</title>
<ellipse fill="none" stroke="black" cx="277.19" cy="-18" rx="92.88" ry="18"/>
<text text-anchor="middle" x="277.19" y="-14.3" font-family="Times,serif" font-size="14.00">UIApplicationDelegate</text>
</g>
<!-- AppDelegate&#45;&gt;UIApplicationDelegate -->
<g id="edge2" class="edge">
<title>AppDelegate&#45;&gt;UIApplicationDelegate</title>
<path fill="none" stroke="black" d="M288.48,-71.7C286.83,-63.98 284.85,-54.71 283,-46.11"/>
<polygon fill="black" stroke="black" points="286.38,-45.15 280.86,-36.1 279.53,-46.62 286.38,-45.15"/>
</g>
<!-- UIResponder -->
<g id="node5" class="node">
<title>UIResponder</title>
<ellipse fill="none" stroke="black" cx="446.19" cy="-18" rx="57.69" ry="18"/>
<text text-anchor="middle" x="446.19" y="-14.3" font-family="Times,serif" font-size="14.00">UIResponder</text>
</g>
<!-- AppDelegate&#45;&gt;UIResponder -->
<g id="edge3" class="edge">
<title>AppDelegate&#45;&gt;UIResponder</title>
<path fill="none" stroke="black" d="M323.36,-74.83C347.07,-64.05 379.91,-49.13 405.67,-37.42"/>
<polygon fill="black" stroke="black" points="407.16,-40.59 414.81,-33.26 404.26,-34.22 407.16,-40.59"/>
</g>
<!-- SceneDelegate -->
<g id="node6" class="node">
<title>SceneDelegate</title>
<ellipse fill="none" stroke="black" cx="535.19" cy="-90" rx="63.09" ry="18"/>
<text text-anchor="middle" x="535.19" y="-86.3" font-family="Times,serif" font-size="14.00">SceneDelegate</text>
</g>
<!-- SceneDelegate&#45;&gt;UIResponder -->
<g id="edge4" class="edge">
<title>SceneDelegate&#45;&gt;UIResponder</title>
<path fill="none" stroke="black" d="M514.55,-72.76C502.67,-63.42 487.57,-51.55 474.59,-41.33"/>
<polygon fill="black" stroke="black" points="476.44,-38.34 466.42,-34.91 472.11,-43.84 476.44,-38.34"/>
</g>
<!-- UIWindowSceneDelegate -->
<g id="node7" class="node">
<title>UIWindowSceneDelegate</title>
<ellipse fill="none" stroke="black" cx="625.19" cy="-18" rx="102.88" ry="18"/>
<text text-anchor="middle" x="625.19" y="-14.3" font-family="Times,serif" font-size="14.00">UIWindowSceneDelegate</text>
</g>
<!-- SceneDelegate&#45;&gt;UIWindowSceneDelegate -->
<g id="edge5" class="edge">
<title>SceneDelegate&#45;&gt;UIWindowSceneDelegate</title>
<path fill="none" stroke="black" d="M556.07,-72.76C567.82,-63.62 582.7,-52.05 595.64,-41.99"/>
<polygon fill="black" stroke="black" points="598.06,-44.54 603.81,-35.63 593.76,-39.01 598.06,-44.54"/>
</g>
<!-- DummyViewController -->
<g id="node8" class="node">
<title>DummyViewController</title>
<ellipse fill="none" stroke="black" cx="821.19" cy="-90" rx="95.58" ry="18"/>
<text text-anchor="middle" x="821.19" y="-86.3" font-family="Times,serif" font-size="14.00">DummyViewController</text>
</g>
<!-- UIViewController -->
<g id="node9" class="node">
<title>UIViewController</title>
<ellipse fill="none" stroke="black" cx="821.19" cy="-18" rx="75.29" ry="18"/>
<text text-anchor="middle" x="821.19" y="-14.3" font-family="Times,serif" font-size="14.00">UIViewController</text>
</g>
<!-- DummyViewController&#45;&gt;UIViewController -->
<g id="edge6" class="edge">
<title>DummyViewController&#45;&gt;UIViewController</title>
<path fill="none" stroke="black" d="M821.19,-71.7C821.19,-63.98 821.19,-54.71 821.19,-46.11"/>
<polygon fill="black" stroke="black" points="824.69,-46.1 821.19,-36.1 817.69,-46.1 824.69,-46.1"/>
</g>
</g>
</svg>
